# xmcd CD database file
#
# Track frame offsets:
#	150
#	21446
#	62032
#	81382
#	115187
#	132109
#	156992
#	173398
#	212782
#
# Disc length: 3008 seconds
#
# Revision: 0
# Processed by: cddbd v1.5.2PL0 Copyright (c) Steve Scherf et al.
# Submitted via: CDex 1.51
#
DISCID=760bbe09
DTITLE=Bebelaar,Patrick - Reflections In Your Eyes
DYEAR=2014
DGENRE=Jazz
TTITLE0=Calming Influence (für meinen Vater)
TTITLE1=The Times We Had
TTITLE2=Life Flows On
TTITLE3=My Reflections In Your Eyes
TTITLE4=Circles
TTITLE5=Pantheon
TTITLE6=Anouar
TTITLE7=In The Bosom Of Our Traditions
TTITLE8=Autumn Leaves
EXTD=YEAR: 2014
EXTT0=
EXTT1=
EXTT2=
EXTT3=
EXTT4=
EXTT5=
EXTT6=
EXTT7=
EXTT8=
PLAYORDER=
